<?xml version="1.0" standalone="no"?>
<!DOCTYPE svg PUBLIC "-//W3C//DTD SVG 20010904//EN"
 "http://www.w3.org/TR/2001/REC-SVG-20010904/DTD/svg10.dtd">
<svg version="1.0" xmlns="http://www.w3.org/2000/svg"
 width="2000.000000pt" height="2000.000000pt" viewBox="0 0 2000.000000 2000.000000"
 preserveAspectRatio="xMidYMid meet">

<g transform="translate(0.000000,2000.000000) scale(0.100000,-0.100000)"
fill="#000000" stroke="none">
<path d="M9668 17839 c-1697 -72 -3324 -691 -4633 -1765 -390 -320 -789 -719
-1109 -1109 -1444 -1760 -2044 -4055 -1656 -6324 310 -1810 1275 -3478 2701
-4672 1690 -1415 3898 -2050 6097 -1753 1406 189 2731 758 3842 1649 253 203
405 339 645 580 241 240 378 393 580 645 1347 1682 1939 3823 1649 5968 -266
1972 -1276 3767 -2834 5037 -1104 900 -2461 1487 -3885 1680 -466 63 -925 84
-1397 64z m-2193 -4139 c545 -30 976 -140 1394 -356 225 -117 442 -261 644
-429 l68 -56 -20 -27 c-11 -15 -75 -102 -143 -194 -68 -91 -244 -330 -392
-531 l-268 -364 -102 72 c-372 265 -701 392 -1111 425 -270 23 -531 -14 -742
-103 -628 -266 -937 -1055 -910 -2317 21 -923 212 -1466 626 -1778 253 -191
596 -278 988 -252 381 26 671 131 1131 412 62 38 116 66 121 63 5 -3 136 -186
289 -408 154 -221 337 -483 406 -582 l126 -180 -32 -28 c-70 -59 -293 -215
-400 -280 -466 -281 -937 -438 -1498 -499 -147 -16 -618 -15 -775 1 -670 68
-1198 265 -1684 628 -160 120 -439 400 -562 565 -316 424 -528 915 -638 1478
-94 479 -115 1076 -55 1595 131 1146 645 2070 1456 2616 587 396 1283 572
2083 529z m4271 -420 c726 -3008 1339 -5537 1343 -5542 5 -6 277 1049 1226
4767 128 501 238 928 244 950 l10 40 973 0 c859 0 973 -2 971 -15 -4 -23
-2245 -6982 -2304 -7155 -148 -431 -369 -868 -602 -1194 -250 -348 -579 -671
-907 -888 -483 -320 -1050 -518 -1781 -623 -198 -28 -432 -49 -443 -40 -4 5
-23 113 -42 242 -80 544 -155 1055 -160 1080 -5 24 -2 27 28 32 417 66 606
106 827 178 259 84 423 160 586 272 78 53 385 349 385 371 0 5 -542 1747
-1204 3870 -662 2123 -1202 3863 -1201 3866 2 3 453 5 1001 4 l998 -1 52 -214z"/>
</g>
</svg>
